<svg id="Layer_1" data-name="Layer 1" xmlns="http://www.w3.org/2000/svg" viewBox="0 0 500 500"><title>Artboard 3 copy</title><g id="_2" data-name="2"><path d="M233.3,206.81c-21.09,6.39-44.16,26.2-49.19,34.43-5.3,8.67,7.82,16.72,13.14,8,3-4.88,22.95-22.4,40.52-27.73,20.61-6.23,53.3,5.2,39.1,41.09-3.73,9.46,10.57,15.13,14.32,5.66C309.67,221.54,268,196.29,233.3,206.81Z"/><path d="M275.22,295.71c-2-10-17.1-7-15.1,3,3.53,17.63-14.69,33.91-37.91,21.53C188,302,156.13,327.49,160.93,359.94c1.49,10.06,16.72,7.82,15.23-2.26-2.93-19.75,15.53-36.24,38.81-23.84C249.53,352.28,281.32,326.2,275.22,295.71Z"/><path d="M313.24,350.84a7.7,7.7,0,0,0,2.27-10.65c-7-10.82-10.63-41.54,28.21-46-.57,11.67,7.42,21.87,22.24,27.57a7.7,7.7,0,0,0,5.52-14.38c-9.93-3.81-13.9-9-11.83-15.32,32.91-5.15,41.48-12.51,49.72-30,4.34-9.21-9.6-15.76-13.93-6.55-6.1,12.95-8.62,18.31-54.54,23.53C275.32,286.43,295.06,362.59,313.24,350.84Z"/><path d="M281.82,346.35c-46.41-3.43-55.66,38.17-39.9,39.41a7.69,7.69,0,0,0,8.28-7.07c1.47-18.56,27.53-17.2,30.5-17C290.8,362.5,292,347.09,281.82,346.35Z"/><path d="M454.25,202.37c6.95-20.17-3.2-38.17-20.61-46.2,4.14-28.48-25.59-48.11-46.28-40.91-11.61-18.2-35.38-21.7-56.6-15.86-14.28-30.49-58.39-30.46-76.35-12.57-15.8-12.35-47.42-11.19-60.62,13-22.23-10.87-45.71,5.69-52,27.59-23.25-3-46.51,18.25-42.95,46.58C72,175,57.19,201,61.75,227.61c-18.36,4.53-31.36,29.3-20.49,49.47-19.41,23-2.19,51.09,16.15,56.12-4,31.21,27.79,58.64,58.21,48.25,14.71,36.2,58.83,37.24,81.4,20,16.28,25.51,69.6,38.46,93.6-1.95,23.82,13,65.74-2.06,68.69-33.81,28.86,7.92,57.21-18.56,54.12-47.93,24.49-6.57,38.13-28.51,38.39-53C471.46,252.38,472.54,214.63,454.25,202.37Zm-347-12.16A7.7,7.7,0,0,0,116.07,180c-9.83-25.7,15-45.39,31.85-34.15,8.45,5.64,17-7.16,8.54-12.82-.08,0-.16-.08-.23-.13,3.41-14,20.13-29.38,36.16-15.54a7.7,7.7,0,0,0,12.47-3.86C211.61,87.94,244,92.36,248,102.72a7.71,7.71,0,0,0,14.61-.76c3.53-13,42.18-19.63,53.84,3.21a44.84,44.84,0,0,0-10.26,7.6c-14.63-6.64-31.78-.36-44.18,10.52-7.26-4.94-20.48-10.49-38.5-3.68-9.53,3.6-4.07,18,5.44,14.4,10.5-4,18.21-1.65,22.86,1a41.87,41.87,0,0,0-4.86,10.4c-17.22-1-33.2,3.28-45.37,12.34-3.47-12.21-17.59-30.33-25.63-20.41a7.69,7.69,0,0,0,1.13,10.82c13.47,10.93,10.65,23.68,9.89,26.28A40.79,40.79,0,0,0,182,194c-22.36,11.17-40.95,32.86-42,57.8-15.35,7.17-28.55,8.44-39.24,3.6C84,247.85,77.62,227.57,76.93,225.23,73.4,205.3,84.59,185.13,107.2,190.21Zm-32.64,138a7.71,7.71,0,0,0-11.09-9.62c-3.9,1.92-22.57-13-12.41-28.88a35.88,35.88,0,0,0,26.37,9.45c12.62-.52,18.93,8,12.78,23.07-3.88,9.47,10.42,15.18,14.25,5.83,10.76-26.31-4.65-45.2-27.65-44.29a21.32,21.32,0,0,1-18.71-9,11.93,11.93,0,0,0-1.74-2.64,71.29,71.29,0,0,1-3.4-7.64c-1.85-10.63,6.34-21.86,14.43-22.17,14.65,28.13,41.09,39.29,74.73,25.38a38.05,38.05,0,0,0,1.9,4.65c-9.46,7-19.68,28.26-14.13,45.24-15.94,11.93-22.37,29.14-18.67,49.1C89.18,374.93,65,350.27,74.56,328.19ZM449,245.39c-8.81-28.22-35.1-42.83-68.79-30.21-.1-1.72-.24-3.47-.5-5.29-1.43-10-16.68-7.95-15.25,2.15,3.45,24.41-12.16,35-15.33,36.83-8.76,5.17-.94,18.44,7.83,13.26a49.31,49.31,0,0,0,21.73-29.56c66.29-32.13,77,65.2,24.74,71.44A7.7,7.7,0,0,0,397,314c7.44,23.05-19.5,48.56-42.15,32.71A7.71,7.71,0,0,0,343,355.18c8.26,28.53-35.61,42.55-49.46,27.32a7.7,7.7,0,0,0-12.84,2.3c-16.53,40.92-67.05,24.53-73.05,2.77,6.13-17.43-13.66-17.9-14.11-6.95-.61,14.49-49,29.5-63.19-3.67-9.4-21.95-4.92-39.19,13.25-50l6.92-4.16c-5.05-7.57-8.46-10.81-6.18-21.38,1.34-6.24,5.39-14.44,9.24-17.07,16.57,12.84,43.54,11.31,63.17,4.39,6,3.61,12.47,10.77,13.58,15.2,3.24,13,31.51,3.86,2-22.65,21-13.19,26.67-35.23,14.17-36.89A7.7,7.7,0,0,0,237.9,251c-3.91,29.41-95.4,46.24-81.33-6.7,4.53-17,22.29-38.85,57.43-44.34,10.05-1.57,7.69-16.78-2.37-15.22a109.17,109.17,0,0,0-13.47,3c4.14-15.89,24.44-30.73,53.93-26.29a7.71,7.71,0,0,0,8.84-7.28c.63-14.52,22.68-32.56,37.31-27.92a35.62,35.62,0,0,0,3.85,31.66c5.79,8.35,18.46-.42,12.64-8.79-1.8-2.59-6.88-11.89,1.42-24.43,5.33-6.86,21-13.4,36.3-12.38,8.8.59,20.18,3.86,24.38,16.11a7.74,7.74,0,0,0,12.49,3.17c8.15-7.49,30.58,3.16,29.32,20.62-21.88-1.77-37.86,15.42-27.78,22.91a7.69,7.69,0,0,0,10.77-1.58c11.44-15.38,51.55-.07,35.62,29.31a7.68,7.68,0,0,0-.09,7.16c3.7,7.26,11.72.08,14.34,16.69A32.78,32.78,0,0,1,449,245.39Z"/><path d="M341.44,186.84a78.2,78.2,0,0,0-13.89,11.07c-9.69-22.51-35-30.06-55.37-26.66-10.06,1.68-7.5,16.87,2.53,15.19,18.68-3.1,45.67,4.62,41.13,42.5-1.21,10.1,14.09,11.93,15.29,1.83a82.51,82.51,0,0,0,.51-14.65c17.36-21,26.74-16.16,25.46-25.78-1.7-12.81,3.83-32,13.51-37.53a7.69,7.69,0,0,0,2.87-10.5C366,129.12,340.77,152.05,341.44,186.84Z"/><path d="M116.75,231.14c32.25-14,40.91-46.49,27.75-70.44-4.89-8.9-18.41-1.52-13.5,7.42,8.75,15.9,3.67,38.48-20.37,48.89C101.3,221.06,107.4,235.19,116.75,231.14Z"/></g></svg>